<svg xmlns="http://www.w3.org/2000/svg" xmlns:xlink="http://www.w3.org/1999/xlink" width="36.35" height="36.35" viewBox="0 0 36.35 36.35">
  <defs>
    <linearGradient id="linear-gradient" x1="0.5" x2="0.5" y2="1" gradientUnits="objectBoundingBox">
      <stop offset="0" stop-color="#7b1562"/>
      <stop offset="1" stop-color="#ff0049"/>
    </linearGradient>
  </defs>
  <path id="youtube" d="M18.172,36.85h-.01c-1.1-.01-10.793-.133-13.541-1.161C2.7,34.975,1.186,32.88.669,30.222A78.554,78.554,0,0,1,0,18.724,80.042,80.042,0,0,1,.666,7.138l0-.011C1.18,4.5,2.73,2.34,4.617,1.624l.014-.005C7.347.631,17.063.51,18.162.5h.02C19.281.51,29,.632,31.726,1.662c1.916.713,3.432,2.808,3.949,5.465.745,3.761.675,11.03.668,11.64,0,.135,0,.687,0,1.5-.009,1.078-.643,1.944-1.42,1.944h-.016c-.784-.012-1.413-.9-1.4-1.986.007-.87,0-1.432,0-1.438s0-.041,0-.062a70.434,70.434,0,0,0-.569-10.568,3.483,3.483,0,0,0-1.952-2.7c-2.007-.759-9.918-1-12.811-1.025-2.892.028-10.794.26-12.812.987A3.6,3.6,0,0,0,3.411,8.145,77.455,77.455,0,0,0,2.84,18.7v.052a72.726,72.726,0,0,0,.571,10.455,3.475,3.475,0,0,0,1.949,2.689c2.027.759,9.924,1,12.811,1.025,2.894-.028,10.8-.26,12.815-.989a3.481,3.481,0,0,0,1.947-2.694c.2-1.048.983-1.668,1.741-1.385a2.127,2.127,0,0,1,1,2.409c-.518,2.657-2.033,4.752-3.955,5.467l-.008,0C29,36.718,19.28,36.839,18.182,36.85h-.01ZM16.565,25.991,23.817,20.2a2.285,2.285,0,0,0,0-3.242l-7.253-5.794a1.026,1.026,0,0,0-1.342,0,2.088,2.088,0,0,0-.67,1.617V24.37a2.09,2.09,0,0,0,.67,1.618,1.025,1.025,0,0,0,1.342,0Zm0,0" transform="translate(0.002 -0.5)" fill="url(#linear-gradient)"/>
</svg>
