<svg xmlns="http://www.w3.org/2000/svg" xmlns:xlink="http://www.w3.org/1999/xlink" width="36.35" height="36.35" viewBox="0 0 36.35 36.35">
  <defs>
    <linearGradient id="linear-gradient" x1="0.5" x2="0.5" y2="1" gradientUnits="objectBoundingBox">
      <stop offset="0" stop-color="#7b1562"/>
      <stop offset="1" stop-color="#ff0049"/>
    </linearGradient>
  </defs>
  <path id="facebook_1_" data-name="facebook (1)" d="M34.93,24.991a1.42,1.42,0,0,0,1.42-1.42V5.68A5.686,5.686,0,0,0,30.67,0H5.68A5.686,5.686,0,0,0,0,5.68V30.67a5.686,5.686,0,0,0,5.68,5.68H30.67a5.686,5.686,0,0,0,5.68-5.68,1.42,1.42,0,1,0-2.84,0,2.843,2.843,0,0,1-2.84,2.84H23.713V23.145H27a1.42,1.42,0,0,0,1.41-1.25l.188-1.562a1.42,1.42,0,0,0-1.41-1.59H23.713V13.986a2.13,2.13,0,0,1,2.13-2.13h1.775a1.42,1.42,0,0,0,1.42-1.42V9a1.419,1.419,0,0,0-1.273-1.412c-.72-.073-1.482-.133-1.922-.133a6.574,6.574,0,0,0-4.554,1.916A6.465,6.465,0,0,0,19.311,14v4.744H16.116a1.42,1.42,0,0,0-1.42,1.42v1.562a1.42,1.42,0,0,0,1.42,1.42h3.195V33.51H5.68a2.843,2.843,0,0,1-2.84-2.84V5.68A2.843,2.843,0,0,1,5.68,2.84H30.67a2.843,2.843,0,0,1,2.84,2.84V23.571A1.42,1.42,0,0,0,34.93,24.991Zm0,0" fill="url(#linear-gradient)"/>
</svg>
