<svg xmlns="http://www.w3.org/2000/svg" xmlns:xlink="http://www.w3.org/1999/xlink" width="36.351" height="36.353" viewBox="0 0 36.351 36.353">
  <defs>
    <linearGradient id="linear-gradient" x1="0.5" x2="0.5" y2="1" gradientUnits="objectBoundingBox">
      <stop offset="0" stop-color="#7b1562"/>
      <stop offset="1" stop-color="#ff0049"/>
    </linearGradient>
  </defs>
  <path id="instagram-sketched" d="M18.534,36.354h-.362c-2.849.007-5.482-.065-8.043-.221a10.751,10.751,0,0,1-6.2-2.346A9.947,9.947,0,0,1,.59,28.39a23.913,23.913,0,0,1-.549-5.71C.023,21.353,0,19.78,0,18.181S.023,15,.041,13.675A23.916,23.916,0,0,1,.59,7.965a9.948,9.948,0,0,1,3.343-5.4A10.751,10.751,0,0,1,10.13.223C12.69.068,15.324-.005,18.179,0s5.482.066,8.043.221a10.751,10.751,0,0,1,6.2,2.346,9.946,9.946,0,0,1,3.343,5.4,23.914,23.914,0,0,1,.549,5.71c.018,1.327.037,2.9.041,4.5s-.023,3.178-.041,4.506a1.42,1.42,0,1,1-2.84-.039c.018-1.319.037-2.882.041-4.467s-.023-3.141-.041-4.46a21.755,21.755,0,0,0-.461-5.047,7.17,7.17,0,0,0-2.385-3.9A7.823,7.823,0,0,0,26.05,3.058c-2.5-.152-5.074-.222-7.87-.216s-5.377.064-7.877.216A7.825,7.825,0,0,0,5.727,4.77a7.17,7.17,0,0,0-2.385,3.9,21.755,21.755,0,0,0-.461,5.047c-.018,1.319-.037,2.882-.041,4.467s.023,3.141.041,4.46a21.755,21.755,0,0,0,.461,5.047,7.17,7.17,0,0,0,2.385,3.9A7.823,7.823,0,0,0,10.3,33.3c2.5.152,5.075.223,7.871.216s5.377-.064,7.877-.216a7.823,7.823,0,0,0,4.575-1.712,6.823,6.823,0,0,0,1.949-2.612A1.42,1.42,0,0,1,35.18,30.1a9.633,9.633,0,0,1-2.761,3.684,10.749,10.749,0,0,1-6.2,2.346c-2.452.149-4.971.222-7.688.222ZM26.98,18.178A8.875,8.875,0,1,0,18.1,27.053,8.885,8.885,0,0,0,26.98,18.178Zm-2.84,0A6.035,6.035,0,1,1,18.1,12.142,6.042,6.042,0,0,1,24.14,18.178ZM27.974,6.462a2.13,2.13,0,1,0,2.13,2.13A2.13,2.13,0,0,0,27.974,6.462Zm0,0" transform="translate(0 -0.001)" fill="url(#linear-gradient)"/>
</svg>
