<svg xmlns="http://www.w3.org/2000/svg" xmlns:xlink="http://www.w3.org/1999/xlink" width="14.967" height="694" viewBox="0 0 14.967 694">
  <defs>
    <clipPath id="clip-path">
      <ellipse id="Ellipse_79" data-name="Ellipse 79" cx="5.739" cy="6.025" rx="5.739" ry="6.025" transform="matrix(-0.304, -0.953, 0.953, -0.304, 3.488, 14.597)" fill="none"/>
    </clipPath>
  </defs>
  <g id="Group_30" data-name="Group 30" transform="translate(-1794.794 -156.5)">
    <line id="Line_3" data-name="Line 3" y2="688" transform="translate(1802.5 159.5)" fill="none" stroke="#82495a" stroke-linecap="round" stroke-width="6"/>
    <line id="Line_11" data-name="Line 11" y2="201" transform="translate(1802.5 159.5)" fill="none" stroke="#c70039" stroke-linecap="round" stroke-width="6"/>
    <g id="Untitled-5" transform="translate(1794.794 353)">
      <ellipse id="Ellipse_78" data-name="Ellipse 78" cx="5.739" cy="6.025" rx="5.739" ry="6.025" transform="matrix(-0.304, -0.953, 0.953, -0.304, 3.488, 14.597)" fill="#d81f37"/>
      <g id="Group_24" data-name="Group 24" transform="translate(0)" clip-path="url(#clip-path)">
        <path id="Path_396" data-name="Path 396" d="M782.969,739.7l0,0h0l-.008.008h0l-.007.009,0,0-.005.008,0,0,0,0,0,0,0,0,0,0v0l.006-.008v0l.006-.009.007-.01,0,0h0l-.024.154h0l.009.011.01.01h0l.005,0-.009.008h0l-.009.008-.009.008h0l-.01.008-.009.008h0l-.01.008-.01.008h0l-.01.007-.01.007h0l-.019.014-.018.013v0l-.017.012-.016.011h0l-.015.01-.014.009h0l-.012.008-.01.006h0l-.009.005h0l-.006,0h0l-.024.021-.023.021-.024.021-.023.021-.024.021-.024.02-.024.02-.024.02-.025.02-.025.02-.025.02-.025.02-.025.02-.025.02-.026.019-.025.019-.026.019-.026.019-.026.019-.026.019-.026.019-.026.019-.026.018-.026.018-.026.018-.026.018-.027.018-.026.018-.026.018-.027.018-.027.018-.027.018-.027.017-.027.017-.027.017-.027.017-.027.017-.027.017-.028.017-.027.017-.027.017-.027.017-.028.016-.028.016-.028.016-.028.016-.028.016-.028.016-.028.016-.028.016-.028.016-.028.015-.028.016-.028.016-.028.015-.028.015-.028.015-.029.015-.028.015-.028.015-.029.015-.029.015-.028.014-.029.015-.044.022-.044.022-.044.021-.044.021-.045.021-.044.021-.045.021-.045.02-.01,0-.035.016-.045.02-.045.02-.045.02-.045.02-.045.02-.045.019-.045.019-.046.019-.046.019-.046.019-.046.018-.046.018-.046.018-.046.018-.046.018-.046.017-.046.017-.047.017-.046.017-.047.017-.047.017-.047.016-.047.017-.047.016-.047.016-.047.016-.047.016-.047.016-.047.016-.047.016-.047.016-.047.016-.048.015-.048.015-.048.015-.048.015-.048.015-.1.03-.1.029-.1.03-.1.029-.1.029-.1.029-.1.029-.2.057-.2.057-.007,0-.09.031-.1.034-.1.034-.1.034-.1.035-.1.035-.1.035-.049.018-.049.018-.049.018-.049.018-.049.018-.049.018-.049.018-.049.019-.049.018-.049.019-.049.019-.049.019-.049.019-.049.02-.049.019-.049.02-.049.02-.048.02-.049.02-.049.02-.049.021-.049.021-.049.021-.049.021-.049.021-.048.022-.048.022-.048.022-.048.022-.049.023-.048.023-.048.023-.048.024-.048.024-.048.023-.048.023-.048.024-.048.024-.048.025-.048.025-.048.025-.048.026-.047.026-.047.026-.047.026-.048.027-.022.013-.022.013-.022.013-.022.014-.022.014-.022.014-.022.014-.022.014-.022.015-.021.015-.021.015-.021.015-.021.016-.021.016-.022.016-.022.016-.021.016-.021.017-.021.017-.021.017-.021.017-.021.017-.02.017-.021.018-.02.018-.02.018-.02.019-.02.018-.02.019-.02.019-.019.019-.019.02-.019.02-.019.02-.019.02-.019.02-.019.021-.018.021-.018.021-.018.021-.018.021-.018.022-.018.022-.017.022-.017.022-.017.022-.017.022-.017.023-.016.023-.016.023-.016.024-.016.023-.016.024-.015.024-.015.024-.015.025-.015.025-.014.025-.014.025-.014.025h0l-.013.025-.013.026-.013.026-.012.026-.012.026-.012.027-.012.027-.011.027-.011.027-.01.028-.01.028-.01.028-.009.029-.009.029-.009.029-.008.029-.008.029-.008.03-.007.03-.007.03-.006.029,0,.016,0,.015,0,.015,0,.015,0,.016,0,.015,0,.016,0,.016,0,.016,0,.016v.016l0,.016v.111h0v.195l0,.017v.016l0,.016,0,.016,0,.017,0,.016,0,.016,0,.017,0,.016,0,.016,0,.017,0,.017,0,.016,0,.017,0,.017,0,.016,0,.017,0,.016,0,.016,0,.016,0,.016,0,.016.005.016.005.016.005.016.005.016.006.016.006.016.006.016.006.016h0l.006.016.006.016.006.016.007.016.007.016.007.016.007.016.008.016.008.016.008.016.008.016.008.016.008.016.008.016.009.015.009.016.009.015.009.016.009.015.009.016.01.015.01.015.01.015.01.015.01.015.01.015.01.015.011.015.011.015.011.015.011.015.011.014.012.014.014.017.014.017.014.017.014.017.015.017.015.017.015.016.015.016.015.016.015.016.016.016.016.016.016.015.016.015.016.015.016.015.016.014.016.014.017.014.017.014.017.013.017.013.017.013.017.013.017.013.017.012.017.012.018.012.018.012.018.012.018.012.018.012.018.011.018.011.018.011.018.01.018.01.018.01.018.009.018.01.018.009.018.009.019.009.019.009.019.008.019.009.019.008.019.008.019.008.019.008.019.007.019.007.019.007.019.007.019.007.019.006.019.006.019.006.019.006.019.006.019.006.019.005.019.005.019.005.019,0,.019,0,.019,0,.019,0,.019,0,.019,0,.019,0,.019,0,.019,0,.019,0,.019,0,.019,0,.019,0,.019,0,.019,0,.019,0,.019,0,.019,0,.019,0,.019,0,.019,0,.019,0,.019,0,.019,0,.019,0h.4l.037,0,.037,0,.037,0,.037,0,.037,0,.037,0,.036,0,.036,0,.036,0,.036,0,.036,0,.036,0,.036,0,.035-.005.035-.006.035-.006.035-.006.035-.006.035-.006.035-.007.035-.007.035-.007.035-.007.035-.007.034-.007.034-.008.034-.008.034-.008.034-.008.034-.008.034-.008.033-.008.033-.009.033-.008.033-.009.033-.009.032-.009.032-.009.032-.009.032-.009.032-.009.031-.009.031-.009.031-.009.031-.009.061-.018.06-.018.059-.018.058-.019.057-.018.056-.018.054-.018.054-.018.052-.017.051-.017.1-.033.091-.031.049-.016.049-.016.049-.016.049-.016.049-.016.049-.016.05-.016.05-.016.047-.015h0l.05-.016.05-.016.05-.016.1-.031.1-.031.1-.031.1-.031.206-.062.1-.031.1-.031.1-.032.1-.032.052-.016.052-.016.053-.016.052-.017.053-.016.053-.017.053-.017.053-.017.053-.017.053-.017.053-.018.053-.018.053-.018.053-.018.053-.018.053-.019.053-.019.053-.019.053-.02.053-.02.053-.02.053-.02.053-.02.053-.021.053-.021.053-.021.053-.022.053-.022.053-.022.053-.023.053-.024.053-.023.025-.011.024-.011.023-.011.025-.012.047-.022.047-.022.047-.023.047-.024.047-.023.046-.024.046-.024.046-.024.046-.023.045-.023.045-.024.045-.024.045-.024.044-.024.044-.025.044-.024.044-.025.044-.025.043-.021.043-.025.043-.025.043-.025.085-.049.084-.049.083-.049.083-.049.082-.048.082-.048.081-.047.081-.047.04-.023.04-.023.04-.023.04-.023.04-.022.04-.022.039-.022.039-.022.04-.022.039-.021.039-.021.039-.021.039-.02.039-.02.039-.02.039-.02,0,0,.035-.018.039-.019.038-.019.038-.019.038-.018.039-.018.018-.009.019-.009.019-.009.019-.009.026-.012.026-.012.026-.012.026-.012.026-.012.027-.012.027-.012.027-.012.027-.012.026-.011.055-.023.054-.022.055-.022.055-.022.056-.022.056-.022.056-.021.056-.022.057-.021.057-.021.057-.021.057-.021.057-.021.116-.043.117-.043.118-.043.118-.044.06-.022.06-.022.06-.022.06-.023.06-.024.042-.016.017-.007.02-.008.019-.007.019-.007.018-.007.019-.007.019-.007.018-.007.019-.007.019-.007.019-.007.019-.006.019-.007.019-.006.019-.006.019-.006.019-.006.019-.006.019-.006.019-.006.019-.005.019-.005.019-.005.019-.005.019-.005.019,0,.019,0,.019,0,.019,0,.019,0,.019,0,.019,0,.019,0,.018,0,.019,0,.018,0,.018,0,.019,0,.018,0,.018,0,.019,0,.018,0,.018,0,.018,0,.018,0,.018,0,.018,0,.018,0,.018,0,.018,0h.334l.016,0h.015l.015,0,.016,0,.015,0,.019,0h.062l-.008,0h.039l-.008,0h.039l-.008,0,.019,0,.019,0-.008,0,.019,0,.019,0-.008,0,.019,0,.019,0-.008,0,.019,0,.019,0-.008,0,.019,0,.019,0-.008,0,.019,0,.019,0-.008,0,.019,0,.019,0-.008,0,.019.005.018,0-.008,0,.019.005.018.005-.008,0,.019.006.018.006-.008,0,.019.006.018.007-.007,0,.018.007.018.007-.007,0,.018.008.018.008-.007,0,.018.008.018.008-.007,0,.014.007,0,0,.019.007-.007-.005.019.008.019.008-.006-.005.019.008.019.009-.006-.005.019.009.019.009-.006-.005.019.01.019.01-.006-.005.019.01.019.011-.006-.005.019.012.019.012-.005-.005.019.012.017.01.009.006,0,0,.009.006.01.006.009.006.01.006.01.007.01.007.01.007.01.007.01.007.01.007.01.007.01.007.012.009,0,0,.011.009.011.009,0,0,.011.009.011.009,0,0,.011.01.011.01,0,0,.011.01.011.01,0,0,.01.01.011.01,0,0,.01.01.01.01,0,0,.01.01.01.01,0,0,.01.01.01.01,0,0,.01.01.01.011,0,0,.009.011.009.011,0-.005.009.011.009.011,0-.005.008.011.008.011,0-.006.008.011.008.011,0-.006.009.014,0-.006.009.014,0-.007.009.014,0-.007.009.014,0-.007.008.014,0-.007.008.015,0-.007.007.014,0-.008.007.014,0-.008.007.015,0-.008.007.015,0-.008h0l.006.015V744.1l0,.007v0l0,.008v0l0,.008v0l0,.007v0l0,.008v0l0,.008v0l0,.008v0l0,.008v0l0,.008v0l0,.007v0l0,.008v-.005l0,.008v-.005l0,.008v-.005l0,.008v-.005l0,.008v0l0,.008v.3l0,.017,0,.017,0,.017,0,.017,0,.017,0,.016,0,.017,0,.016,0,.017,0,.016,0,.016,0,.017,0,.016,0,.016,0,.016,0,.016,0,.016,0,.016,0,.016,0,.016,0,.016,0,.016,0,.016,0,.016,0,.016,0,.016,0,.016,0,.015,0,.016,0,.016,0,.015,0,.016-.005.015,0,.015-.005.015-.005.015-.005.015-.006.015-.005.015-.006.015-.006.015-.006.015-.006.015-.006.015-.006.015-.006.015-.006.015-.006.015-.007.015-.007.014-.007.015-.007.014-.007.014-.007.015-.007.014-.007.014-.007.014-.007.014-.007.014-.008.014-.008.014-.008.014-.008.014-.008.014-.008.014-.008.014-.008.014-.008.014,0,.007,0,.006-.01.012-.01.012-.01.012-.01.013-.01.012-.01.012-.01.012-.01.012-.011.012-.011.012-.011.012-.011.012-.011.012-.011.012-.011.012-.011.012-.011.012-.011.012-.012.012-.012.012-.012.012-.012.012-.012.012-.012.012-.012.012-.012.011-.012.011-.012.011-.012.011-.023.022-.024.022-.024.021-.025.021-.025.021-.025.021-.025.021-.025.02-.026.02-.026.02-.026.02-.026.019-.026.02-.027.019-.027.019-.027.019-.027.019-.028.018-.028.019-.028.018-.028.018-.028.018-.028.018-.029.017-.029.017-.029.017-.029.017-.03.017-.03.017-.03.017-.03.016-.03.016-.03.016-.031.016-.031.016-.031.015-.031.015-.031.015-.031.015-.031.015-.031.015-.032.014-.032.015-.032.014-.032.014-.032.014-.032.014-.032.014-.033.013-.033.014-.033.013-.033.013-.033.013-.033.013-.033.013-.033.013-.033.013-.033.013-.033.012-.033.012-.034.012-.034.012-.033.012-.034.012-.034.012-.034.012-.034.012-.034.012-.034.012-.034.012-.034.012-.06.02-.06.019-.06.019-.06.019-.06.019-.061.018-.06.018-.061.018-.061.018-.061.017-.061.017-.061.017-.061.017-.061.017-.061.017-.061.016-.061.016-.062.016-.061.016-.062.016-.061.015-.061.015-.062.015-.02,0-.041.009-.062.014-.062.014-.062.014-.062.014-.062.013-.062.013-.062.013-.062.013-.062.013-.062.013-.062.013-.062.012-.063.012-.062.012-.062.012-.063.012-.062.012-.063.012-.062.012-.063.011-.063.012-.063.011-.063.011-.063.011-.063.011-.063.01-.063.011-.063.01-.063.01-.063.01-.063.01-.063.01-.063.01-.063.01-.127.019-.127.019-.127.019-.127.018-.127.018-.127.018-.127.018-.128.017-.127.018-.256.035-.256.034-.256.035-.128.017-.075.01h-.054l-.131,0-.132,0-.132,0-.132,0-.132,0-.133,0-.133-.005-.133-.005h-.032l-.1.011-.065.007-.065.007-.065.007-.065.008-.065.008-.065.008-.065.008-.065.008-.065.008-.065.008-.065.008-.065.008-.065.008-.065.008-.065.009-.065.009-.065.009-.065.009-.1.014-.1.014-.054.008-.054.008-.055.008-.056.008-.057.008-.057.009-.058.009-.059.009-.059.01-.06.01-.06.01-.061.011-.061.012-.049.009-.012,0-.031.009-.03.009-.03.009-.031.009-.031.009-.03.009-.031.009-.031.01-.031.009-.031.01-.031.01-.031.01-.031.01-.031.01-.031.01-.031.011-.031.011-.031.011-.031.012-.031.012-.031.012-.031.012-.031.012-.031.012-.031.012-.031.012-.031.013-.031.012-.031.013-.031.013-.031.013-.031.013-.031.014-.031.014-.031.014-.031.014-.031.014-.031.015-.031.015-.031.015-.031.015-.031.016-.031.016-.031.016-.031.016-.031.017-.03.017-.031.017-.03.017-.03.018-.03.018-.03.018-.03.018-.03.019-.03.019-.03.019-.029.019-.029.02-.029.02-.029.021-.029.021-.029.021-.029.021-.029.022-.028.022-.028.022-.028.023-.028.024-.027.023-.027.024-.027.024-.027.025-.027.025-.026.025-.026.025-.014.014-.013.013-.013.013-.013.013-.013.013-.013.013-.013.014-.013.014-.012.014-.013.014-.012.014-.012.014-.012.014-.012.014-.012.014-.012.014-.012.015-.012.015-.012.015-.012.015-.012.015-.012.015-.012.015-.012.015-.012.015-.011.016-.011.016-.011.016-.011.016-.011.016-.011.016-.01.016-.011.016-.01.015-.043.07-.023.037-.024.037-.023.038-.012.021-.012.02-.012.021-.012.021-.012.021-.012.022-.012.022-.012.023-.012.024-.012.023-.012.023-.012.024-.006.012-.006.013-.012.025-.012.025-.012.026-.012.026-.012.027-.012.027-.011.028-.011.028-.01.029-.01.029-.01.03-.01.03-.009.031-.008.03,0,.017,0,.016,0,.016,0,.016,0,.016,0,.016,0,.016,0,.017,0,.017,0,.017,0,.017,0,.017,0,.017,0,.017,0,.018,0,.017,0,.018,0,.018,0,.018,0,.018v.245l0,.019,0,.02,0,.019,0,.02,0,.02,0,.02,0,.019,0,.02,0,.02,0,.02,0,.02,0,.02,0,.019.005.02.005.02.005.02.006.019.006.019.005.016.007.019.007.019.008.02.008.02.008.02.008.02.008.02.009.02.009.019.009.019.009.019.01.019.01.019.01.019.01.018.011.018.011.018.011.018.011.018.012.018.012.018.012.017.012.017.012.017.012.017.012.017.013.016.013.016.013.016.013.016.013.016.013.015.014.015.014.015.014.015.014.014.014.014.014.014.015.014.015.014.015.013.015.013.015.013.015.013.015.013.015.013.015.012.015.012.016.012.015.012.016.012.015.012.016.011.016.011.016.01.016.011.016.01h0l.016.01.016.01.016.01.016.01.016.009.016.009.016.009.016.009.016.009.016.008.016.008.016.008.016.008.016.008.017.007.016.007.016.007.016.007.016.007.017.007.016.006.016.007.017.006.016.006.017.006.016.006.016.006.017.006.016.005.016.006.017.005.017.005.018.005.032.009.033.009.033.009.033.008.033.008.033.007.033.007.033.007.033.007.033.006.033.006.033.005.032,0,.032,0,.033,0,.033,0,.032,0,.032,0,.032,0,.032,0,.032,0,.032,0,.032,0,.032,0h.468l.03,0,.03,0,.03,0,.03,0,.03,0,.03,0,.03,0h.014l.015,0,.029-.006.029-.006.028-.006.028-.006.028-.006.028-.007.028-.006.028-.007.027-.007.027-.006.027-.007.027-.007.026-.007.026-.007.026-.007.026-.007.025-.007.025-.007.025-.007.024-.007.025-.007.047-.014.047-.014.046-.014.044-.014.043-.014.042-.014.041-.014.037-.013.039-.014.037-.014.077-.027.039-.014.04-.014.041-.014.041-.015.022-.008.021-.008.021-.008.022-.008.022-.008.022-.008.022-.009.022-.009.022-.009.023-.009.022-.009.023-.01.023-.01.024-.01.023-.011.022-.01.05-.025.049-.024.049-.024.048-.024.049-.024.048-.025.048-.025.048-.025.048-.025.048-.025.048-.025.048-.025.1-.05.1-.05.1-.05.1-.05.1-.05.1-.05.1-.05.1-.05.191-.1.191-.1.191-.1.044-.022.054-.022.1-.04.1-.04.1-.04.1-.04.1-.039.1-.039.1-.039.049-.02.049-.019.049-.019.05-.019.049-.019.049-.019.05-.019.049-.019.049-.018.049-.018.049-.018.05-.018.05-.018.05-.018.05-.018.049-.018.05-.017.05-.018.05-.017.05-.017.05-.017.05-.017.05-.017.049-.016.05-.016.05-.016.05-.016.05-.016.05-.016.05-.015.05-.015.05-.015.05-.015.05-.015.05-.014.05-.014.05-.014.05-.014.05-.013.05-.013.05-.013.05-.013.051-.013.05-.012.05-.012.05-.012.012,0,.038-.009.051-.012.05-.011.05-.011.051-.01.051-.01.051-.01.051-.01.051-.009.051-.009.051-.009.051-.009.051-.008.051-.008.051-.008.051-.007.051-.007.051-.007.051-.007.051-.006.052-.006.025,0,.026,0,.026,0,.026,0,.026,0,.026,0,.026,0,.026,0,.026,0,.026,0,.041,0,.042,0,.042,0,.042,0,.042,0,.042,0,.042,0,.043,0,.043,0,.043,0,.043,0,.043,0h.536l.021,0,.021,0h.021l.021,0,.021,0,.021,0,.021,0,.021,0,.021,0,.021,0,.021,0,.021,0,.021,0,.02,0,.021,0,.02,0,.02,0,.02,0,.02,0,.02,0,.02,0,.02,0,.02,0,.02,0,.02,0,.02,0,.019,0,.02,0,.019.005.019.005.019.005.019.006.019.006.019.006.019.006.005,0,.014,0,.019,0,.019,0,.02.005h0l.02.005.02.006h0l.02.006.02.006h0l.02.006.02.007h0l.02.007.02.007h0l.02.007.019.007h0l.019.007.019.008h0l.019.008.019.008h0l.019.009.019.009h0l.019.009.019.009h0l.005,0,.015,0,.021.005h0l.021.005.021.006h0l.021.007.021.007h0l.021.008.021.008h0l.02.008.02.008h0l.02.009.02.009h0l.02.01.02.01h0l.02.01.02.011h0l.019.012.019.012h0l.019.012.019.013h0l.019.013.018.013.1.008v-.1l-.011-.02-.013-.021-.013-.02-.013-.02-.013-.02-.013-.02-.014-.02-.014-.02-.014-.02-.014-.02-.014-.02-.015-.02-.015-.019-.015-.02-.015-.019-.015-.019-.016-.019-.016-.019-.016-.019-.016-.019-.016-.019-.012-.014-.005,0-.019-.014-.02-.014-.02-.014-.02-.013-.02-.014-.02-.013-.021-.013-.02-.013-.021-.012-.021-.012-.021-.012-.021-.012-.021-.012-.021-.012-.021-.011-.022-.011-.022-.011-.021-.011-.022-.01-.022-.01-.022-.01-.016-.007-.006,0-.023-.008-.023-.007-.023-.007-.024-.007-.023-.007-.024-.006-.024-.006-.023-.006-.024-.006-.024-.006-.023-.006-.024-.005-.024-.005-.024-.005-.024-.005-.024,0-.023,0-.024,0-.024,0-.023,0-.024,0-.024,0-.023,0-.024,0-.024,0-.024,0-.023,0-.024,0-.023,0-.024,0-.024,0-.024,0-.024,0-.024,0-.024,0-.024,0-.023,0-.023,0h-.606l-.045,0-.045,0-.045,0-.045,0-.044,0-.044,0-.044,0-.043,0-.043,0-.043,0-.027,0-.027,0-.027,0-.027,0-.027,0-.027,0-.027,0-.027,0-.027,0-.027,0-.054.006-.054.006-.054.006-.054.007-.054.007-.054.007-.054.007-.054.008-.054.008-.054.009-.054.009-.054.009-.053.009-.054.009-.053.01-.053.01-.053.01-.053.01-.053.011-.053.012-.041.009-.012,0-.053.012-.053.012-.053.012-.053.012-.053.012-.053.013-.053.013-.052.013-.052.013-.052.014-.053.014-.052.014-.052.014-.052.014-.052.015-.052.015-.052.015-.052.015-.052.015-.052.016-.052.016-.052.016-.052.016-.052.016-.052.016-.052.017-.051.016-.051.017-.051.017-.052.017-.051.017-.051.018-.051.017-.051.017-.051.018-.051.018-.051.018-.051.018-.051.018-.051.018-.051.018-.051.018-.051.018-.05.018-.051.019-.051.019-.1.038-.1.038-.1.038-.1.038-.1.039-.1.038-.1.039-.054.021-.047.014-.207.06-.206.06-.206.059-.1.029-.1.029-.1.029-.1.028-.1.027-.1.027-.1.027-.1.026-.051.013-.051.013-.051.012-.051.013-.051.012-.051.012-.051.012-.051.012-.051.012-.051.012-.051.012-.05.011-.017,0-.016,0-.016,0-.016,0-.016,0-.016,0-.016,0-.016,0-.016,0-.016,0-.017,0-.016,0-.017,0-.017,0h-.034l-.036,0-.037,0-.037,0-.039,0-.081.006-.043,0-.042,0-.035,0-.035,0-.036,0-.037,0h-.527l-.022,0-.022,0-.023,0-.023,0h-.483l-.021,0-.021,0-.021,0-.02,0-.02,0-.02,0-.019,0-.019,0-.019,0-.019,0-.019,0-.018,0-.018,0-.018,0-.017,0-.017,0-.021,0,.008,0-.02-.005-.02,0,.009,0-.02-.005-.02-.005.009,0-.02-.005-.019-.006.009,0-.019-.006-.019-.006.007,0-.009,0-.009,0,.005,0-.009,0-.009,0h.005l-.009,0-.009,0,.005,0-.009,0-.009,0,.005,0-.008,0-.008,0,.005,0-.008,0-.008,0,.005,0-.008,0-.008,0,.006,0-.008,0-.008,0,.006,0-.008,0-.008,0,.006,0-.008,0-.007,0,.006,0-.007,0-.007,0,.006,0-.007,0-.007,0,.006,0-.007,0-.007,0,.006,0-.007,0-.007,0,.006,0-.007,0-.007,0,.007,0-.007,0-.006,0,.006,0-.006,0-.006,0,.007,0-.01-.006.006,0-.009-.006.006,0-.009-.007.006,0-.009-.006.007,0-.009-.007.006,0-.009-.007.006,0-.009-.007.006.005-.009-.007.007.005-.009-.007.006.005-.008-.007.006.005-.008-.007.006.005-.008-.007.007.005-.008-.008.006.006-.008-.008.007.006-.008-.008.006.006-.008-.008.006.006-.008-.008.007.006-.008-.008.006.006-.008-.008.006.006-.007-.008.006.007-.007-.008.006.007-.008-.008.006.007-.007-.008.006.007-.007-.009.006.007-.007-.009.006.007-.007-.009.006.007-.007-.009.006.007-.007-.009.006.007-.007-.009.006.008-.007-.009.006.008-.006-.009.006.008-.007-.009.006.008-.006-.009.005.008-.006-.01.005.008-.006-.009.005.008-.006-.009.005.008-.006-.01.005.008-.006-.01,0,.008-.006-.01.005.008-.006-.01,0,.008-.006-.01,0,.009-.005-.01,0,.009-.005-.011,0,.009-.005-.01,0,.009,0-.01,0,.009,0-.011,0,.009,0-.011,0,.009,0-.011,0,.009,0-.011,0,.009,0-.011,0,.009,0-.012,0,.009,0-.012,0,.009,0-.012,0,.009,0-.012,0,.009,0-.01,0,.009,0-.01,0,.009,0-.01,0,.009,0-.01,0,.009,0-.01,0,.009,0-.01,0,.01,0-.01,0,.01,0-.01,0,.01,0-.01,0,.01,0-.01,0,.01,0-.01,0,.01,0-.01,0,.01,0-.01,0,.009v-.01l0,.009v0h0v-.013l0-.009v.008l0-.009v.008l0-.009v.008l0-.009v.008l0-.009v.008l0-.009,0,.007,0-.009,0,.007,0-.009v.007l0-.009,0,.007,0-.009,0,.007,0-.009,0,.007,0-.009,0,.007,0-.009,0,.007,0-.009,0,.009.006-.018,0,.012,0-.013,0-.012,0,.012,0-.013.005-.013,0,.01.005-.013.006-.013,0,.009.006-.013.006-.014,0,.009.007-.014.006-.014,0,.008.007-.014.007-.014,0,.007.007-.014,0-.007,0-.007,0,.006.008-.014.006-.012.007-.012.007-.012.007-.012.007-.013.008-.013.008-.013.008-.013.008-.014.009-.014.009-.013.019-.03.02-.033.02-.031.041-.063.007-.01,0,0,.006-.009.006-.009,0,0,.006-.009.006-.009,0,0,.006-.008.006-.009,0,0,.006-.009.006-.008,0,0,.006-.009.007-.008,0,0,.007-.008.007-.008,0,0,.007-.008.007-.008,0,0,.007-.008.007-.008,0,0,.007-.008.007-.008,0,0,.007-.008.007-.008,0,0,.007-.008.007-.008,0,0,.007-.008.007-.008,0,0,.007-.008.008-.008,0,0,.008-.008.008-.008,0,0,.008-.008.008-.008,0,0,.008-.008.008-.008,0,0,.007-.007.014-.013.013-.012.013-.012.014-.012.014-.012.014-.012.015-.012.015-.012.015-.012.015-.012.016-.012.016-.012.016-.012.017-.012.017-.012.017-.012.017-.012.018-.012.018-.012.018-.012.018-.011.018-.012.019-.011.019-.011.019-.011.02-.011.02-.011.02-.011.02-.01.021-.01.021-.01.021-.01.021-.01.021-.011.021-.01.022-.01.022-.01.022-.01.022-.01.022-.009.023-.01.023-.01.023-.009.023-.01.024-.009.023-.009.024-.009.024-.009.024-.009.024-.009.024-.009.024-.009.025-.009.024-.008.025-.008.025-.008.025-.008.025-.008.025-.008.025-.008.025-.008.025-.008.025-.008.025-.008.026-.008.026-.007.025-.007.026-.008.026-.007.026-.008.026-.007.026-.007.026-.007.026-.007.025-.007.011,0,.041-.015.051-.019.051-.018.051-.018.051-.018.051-.017.051-.017.051-.017.05-.017.05-.016.05-.016.05-.016.05-.016.049-.016.1-.03.1-.029.06-.018.06-.018.06-.018.06-.018.06-.018.06-.018.06-.017.061-.018.061-.017.061-.017.061-.017.061-.017.061-.017.061-.017.061-.017.061-.016.061-.017.061-.016.094-.025.028-.013.12-.052.12-.051.121-.05.121-.049.122-.048.122-.047.122-.046.123-.046.051-.019.074-.015.126-.026.253-.052.253-.051.253-.052.127-.026.127-.026.127-.026.127-.026.127-.026.127-.027.127-.027.127-.027.127-.027.063-.014.063-.014.063-.014.063-.014.063-.014.064-.014.063-.014.063-.015.063-.015.063-.015.063-.015.063-.015.063-.015.063-.015.063-.015.064-.013.063-.015.063-.016.063-.016.063-.016.063-.016.063-.016.063-.016.063-.016.063-.017.063-.017.063-.017.063-.017.063-.017.063-.017.063-.017.063-.018.063-.018.062-.018.042-.012.021-.006.063-.018.062-.018.062-.018.062-.019.062-.019.062-.019.062-.019.062-.02.062-.02.062-.02.062-.02.062-.02.062-.021.062-.021.061-.021.062-.021.061-.022.062-.022.061-.022.061-.022.061-.022.061-.023.061-.023.035-.013.035-.013.035-.013.035-.013.035-.014.035-.014.035-.014.034-.014.035-.014.034-.014.035-.014.034-.015.034-.014.034-.015.034-.015.034-.015.034-.015.034-.015.034-.016.034-.015.034-.016.034-.016.034-.016.034-.016.034-.016.033-.016.033-.016.033-.017.033-.017.033-.017.033-.017.033-.017.033-.017.033-.017.032-.018.032-.018.032-.018h0l.029-.018.032-.018.032-.018.032-.018.032-.019.032-.019.031-.019.031-.019.031-.019.031-.02.031-.02.031-.02.03-.02.03-.02.03-.021.03-.021.03-.021.03-.021.029-.021.029-.022.029-.022.029-.022.029-.022.028-.022.028-.023.028-.023.028-.024.028-.024.027-.023.027-.023.027-.023.026-.024.027-.025.026-.025.013-.012.013-.013.013-.013.013-.013.013-.013.013-.013.013-.013.012-.013.013-.013.012-.013.012-.013.012-.013.012-.013.012-.014.012-.013.012-.014.012-.013.012-.014.012-.014.012-.014.012-.014.012-.014.012-.014.012-.014.012-.014.012-.014.012-.014.011-.015.012-.014,0-.007.007-.007.013-.013.012-.013.012-.013.013-.013.012-.014.012-.014.011-.014.012-.014.012-.014.012-.014.012-.014.012-.014.012-.014.012-.014.012-.015.012-.014.012-.015.012-.015.012-.015.012-.015.012-.015.012-.015.012-.015.012-.015.012-.015.011-.015.011-.016.011-.016.011-.016L789,745.3l.011-.016.011-.016.011-.016.01-.016.011-.016.01-.016.01-.016.01-.017.01-.017.01-.017.01-.017.01-.017.01-.017.01-.017.01-.017.01-.017.01-.017.01-.018.01-.018.009-.018.009-.018.009-.018.009-.018.009-.018.009-.018.009-.018.009-.019.009-.018.009-.018.009-.019.008-.019.008-.019.008-.019.008-.019.008-.019.008-.019.008-.019.008-.02.008-.02.008-.02.008-.02.007-.02.008-.02.007-.02.007-.02.007-.021.007-.021.007-.021.007-.021.007-.021.007-.021.007-.021.007-.021.007-.022,0-.012,0-.013,0-.014,0-.013,0-.013,0-.013,0-.013,0-.013,0-.013v-.256l0-.013,0-.023h0l0-.024,0-.024,0-.023,0-.023-.005-.024-.005-.023-.006-.024-.006-.023-.006-.023-.007-.023-.007-.022-.007-.022-.007-.022-.008-.022-.008-.021-.008-.021-.008-.021-.008-.021-.008-.021-.009-.021-.009-.02-.009-.02-.009-.02-.009-.02-.01-.02-.01-.019-.01-.019-.01-.019-.01-.019-.01-.018-.01-.018-.01-.018-.01-.018-.01-.018-.01-.018-.01-.017-.01-.017-.01-.017-.01-.017-.01-.016-.01-.016-.01-.016-.01-.016-.01-.016-.01-.015-.01-.015-.01-.015-.01-.015-.009-.014-.01-.015-.019-.026-.02-.027-.02-.026-.021-.026-.021-.026-.021-.025-.021-.025-.022-.025-.022-.025-.022-.024-.023-.024-.023-.023-.024-.024-.023-.024-.024-.023-.006-.005-.019-.016-.025-.021-.026-.02-.026-.02-.026-.02-.026-.019-.026-.019-.026-.018-.027-.018-.027-.018-.027-.017-.027-.019-.027-.017-.028-.016-.028-.016-.028-.016-.028-.015-.028-.015-.028-.015-.029-.014-.029-.014-.029-.013-.029-.013-.029-.013-.029-.013-.029-.012-.029-.012-.029-.012-.03-.011-.03-.011-.03-.011-.03-.01-.03-.01-.03-.01-.03-.009-.03-.009L787.7,742h0l-.031-.005-.031-.005-.031,0-.031,0-.031,0-.031,0-.031,0-.031,0-.031,0-.03,0-.031,0-.03,0h-.363l-.03,0-.03,0-.03,0-.03,0-.03,0-.03,0-.029,0-.03,0-.029,0-.029,0-.029,0-.029,0-.029,0-.029,0-.029,0-.029,0-.029,0-.029,0-.029.005-.029.005-.029.005-.029.006-.028.006-.029.006-.028.006-.028.006-.028.006-.028.007-.028.007-.028.007-.028.007-.027.007-.028.008-.028.008-.028.008-.027.008-.027.008-.027.008-.027.008-.027.008-.027.009-.027.009-.027.009-.026.009-.027.009-.027.009-.026.009-.026.009-.026.01-.026.01-.024.009-.016.006-.041.016-.056.021-.056.021-.056.022-.057.021-.057.021-.115.043-.116.043-.117.044-.118.044-.06.022-.059.022-.06.023-.06.023-.06.023-.06.024-.061.023-.061.023-.061.024-.061.025-.061.025-.061.025-.061.025-.031.013-.031.013-.031.013-.031.013-.031.014-.031.013-.031.013-.031.014-.031.014-.031.014-.023.011-.024.012-.024.011-.025.012-.047.023-.047.024-.047.023-.047.024-.046.024-.042.022,0,0-.048.023-.046.024-.045.025-.045.025-.045.025-.045.025-.044.025-.044.025-.044.025-.043.025-.043.025-.043.025-.043.025-.043.026-.042.025-.042.026-.083.051-.083.051-.083.051-.082.051-.081.05-.081.05-.08.049-.08.049-.039.024-.04.023-.04.024-.039.024-.039.023-.039.023-.039.023-.039.023-.039.022-.039.022-.039.022-.039.021-.039.022-.038.021-.038.021-.039.02-.038.02-.038.02-.038.019-.039.02-.038.019-.039.019-.019.009-.019.009-.019.009-.019.009-.045.021-.045.02-.045.02-.045.02-.045.02-.045.02-.046.019-.046.019-.046.019-.046.019-.047.019-.047.018-.047.019-.047.018-.047.018-.047.018-.047.018-.048.018-.048.017-.048.017-.048.017-.048.017-.048.017-.049.017-.049.017-.049.017-.049.017-.05.017-.049.017-.05.017-.05.016-.05.016-.1.033-.1.033-.1.033-.1.033-.205.066-.1.033-.1.034-.1.034-.1.034-.052.017-.052.018-.052.017h0l-.049.017-.052.018-.052.018-.052.018-.052.019-.052.019-.052.019-.052.019-.052.019-.092.034-.1.035-.048.018-.049.018-.05.018-.05.018-.051.018-.051.018-.052.018-.052.019-.053.018-.054.018-.026.009-.027.009-.027.009-.027.009-.027.009-.027.008-.027.009-.027.008-.027.008-.027.008-.027.008-.027.008-.027.008-.027.008-.027.008-.027.008-.027.007-.027.007-.027.007-.027.007-.027.007-.027.007-.027.006-.027.006-.027.006-.027.006-.027.006-.027.005-.027.005-.026.005-.026,0-.026,0-.026,0-.026,0-.026,0-.026,0-.025,0-.025,0-.025,0-.025,0-.025,0-.025,0-.024,0-.024,0-.023,0-.024,0h-.332l-.012,0h0l-.012,0-.012,0h0l-.012,0-.012,0h.005l-.012,0-.012,0h.005l-.012,0-.012,0h.005l-.012,0-.012,0h.005l-.012,0-.012,0h.005l-.012,0-.011,0,.006,0-.011,0-.011,0,.005,0-.011,0-.011,0,.006,0-.011,0-.011,0,.006,0-.011,0-.01,0,.006,0-.01,0-.01,0,.006,0-.01,0-.01,0,.006,0-.01,0-.01,0,.006,0-.01,0-.01,0,.006,0-.01,0-.01,0,.006,0-.01,0-.01,0,.006,0-.009,0-.01,0,.006,0-.01,0-.01,0,.006,0-.01,0-.009,0,.006,0-.009,0-.009-.005.006,0-.009-.005-.009-.005.006,0-.009-.005-.009-.005.006,0-.009-.006-.009-.005.006,0-.009-.006-.009-.006.006,0-.009-.006-.009-.006.006,0-.009-.006-.008-.006.006,0-.008-.006-.009-.006.006,0-.008-.006-.008-.007.006,0-.008-.007-.008-.007.005,0-.008-.007-.008-.007.005.005-.008-.007-.008-.007.005,0-.008-.007-.008-.007.005.005-.008-.008-.008-.008.005.005-.008-.008-.008-.008,0,.005-.007-.008-.008-.008,0,.005-.008-.008-.008-.009,0,.006-.007-.009-.007-.009,0,.005-.006-.007-.006-.008,0,0-.006-.008-.006-.007,0,0-.006-.008L775,745.88l0,.005-.006-.008L775,745.87l0,0-.005-.007-.005-.007,0,0-.005-.007-.005-.007,0,.005-.005-.007,0-.008,0,.005,0-.007,0-.007,0,.005,0-.007,0-.007,0,.005,0-.007,0-.007,0,.006,0-.007,0-.007,0,.005,0-.007,0-.007,0,.006,0-.007,0-.007,0,.006,0-.007,0-.007,0,.006,0-.007,0-.007,0,.006,0-.007,0-.007,0,.006,0-.007,0-.007,0,.006,0-.01,0,.006,0-.01,0,.006,0-.01,0,.006,0-.01,0,.006,0-.01,0,.006,0-.01,0,.006,0-.01,0,.006,0-.01,0,.006,0-.01,0,.006,0-.01,0,.006,0-.01,0,.006,0-.01,0,.006,0-.01,0,.006,0-.01v.006l0-.01v.006l0-.01v.006l0-.01v.006l0-.01v.006l0-.01v.006l0-.01v.006l0-.01v.006l0-.01v.006l0-.01v.006l0-.01v-.149l0-.02,0,.01,0-.015,0-.015,0,.01,0-.015,0-.015,0,.009,0-.015,0-.015,0,.009,0-.015,0-.016,0,.009,0-.016.005-.015,0,.008.005-.015.006-.015,0,.008.006-.016.006-.016,0,.008.006-.016.006-.015,0,.008.007-.016.007-.016,0,.007.009-.016.007-.015h0l0,.007.008-.016.008-.015,0,.006.008-.016.009-.016,0,.006.009-.016.009-.016,0,.006.009-.015.009-.015,0,.006.009-.015.009-.016,0,.006.01-.015.01-.015,0,.005.01-.015.011-.015,0,.005.011-.015.011-.015,0,.005.011-.015.011-.015,0,0,.012-.015.009-.012.01-.012.01-.012.01-.012.01-.012.01-.012.01-.012.01-.011.011-.012.011-.012.011-.012.012-.012.012-.012.012-.012.012-.012.012-.012.012-.012.012-.012.012-.012.012-.011.012-.011.012-.011.012-.011.012-.01.012-.011.012-.01.013-.01.012-.01.012-.01.013-.01.012-.01.012-.01.013-.009.012-.009.013-.009.012-.009.013-.009.013-.008.012-.008.012-.008.013-.008.04-.025.04-.025.041-.024.041-.025.041-.024.041-.024.041-.023.041-.023.042-.024.042-.023.042-.023.042-.024.042-.023.042-.023.043-.022.043-.022.043-.022.043-.022.043-.022.043-.021.044-.022.044-.021.043-.021.044-.021.044-.021.044-.021.044-.021.045-.02.044-.021.045-.02.045-.02.045-.02.045-.02.045-.02.046-.022.045-.02.045-.019.046-.02.046-.019.046-.019.045-.019.046-.019.046-.019.046-.019.046-.019.046-.019.093-.038.093-.038.094-.037.094-.038.094-.037.094-.037.087-.034.007,0,.186-.084.187-.084.094-.042.094-.042.094-.042.094-.042.094-.043.094-.043.094-.043.047-.022.047-.022.047-.022.047-.022.047-.022.047-.022.047-.022.047-.023.047-.022.047-.023.047-.023.047-.023.047-.023.047-.024.047-.023.047-.024.047-.023.047-.024.047-.024.047-.023.047-.023.046-.024.047-.024.046-.025.046-.025.046-.025.046-.025.046-.025.046-.026.046-.026.046-.026.04-.026.046-.026.045-.027.046-.027.045-.027.045-.027.035-.021.01-.006.045-.028.044-.028.045-.029.044-.029.044-.029.044-.029.044-.03.043-.03.028-.019.028-.019.027-.019.028-.02.028-.02.028-.019.028-.02.028-.02.028-.02.027-.02.027-.02.027-.02.027-.02.027-.02.027-.02.027-.02.027-.02.027-.021.027-.021.027-.021.027-.021.027-.021.027-.021.027-.021.027-.021.027-.021.027-.021.027-.021.026-.021.026-.022.026-.022.026-.022.026-.022.026-.022.026-.022.026-.022.026-.022.026-.022.026-.022.026-.023.025-.023.025-.023.025-.023.025-.024.025-.023.025-.024.025-.023.025-.024.025-.024.025-.023.024-.024.024-.024.024-.023.024-.023.024-.024.023-.023.024-.024.024-.024.023-.025.024-.024.024-.025.023-.025.024-.025.023-.025h0l.005-.008.006-.01.008-.012.009-.014.01-.016.01-.018.011-.02.012-.021.012-.022.012-.023.006-.012.006-.012.006-.012.006-.013.007-.013.006-.013.006-.013.006-.013.006-.013.006-.013.006-.014.006-.014.006-.013.006-.014.005-.013.005-.014,0-.014,0-.014,0-.014,0-.014,0-.014,0-.014,0-.007v-.126l0-.008,0-.008,0-.008,0-.008,0-.008,0-.008,0-.008,0-.008,0-.007-.005-.007-.006-.007-.006-.007-.006-.006-.007-.006-.007-.006-.007,0-.007,0-.007,0-.008,0-.008,0-.008,0-.008,0-.008,0-.008,0h-.008l-.009,0-.01,0h-.035l-.01,0-.009,0-.009,0-.008,0-.007,0-.006,0-.005,0,0,0,0,0,0,0-.007.007-.006.008-.006.007-.005.007-.005.007-.005.007,0,.007,0,.007,0,.006,0,0h0v.005Zm.129.058,0,0h0Zm-.02-.078.033.019.019.02-.154-.024,0,0h0l.024-.012h0l.036-.007Z" transform="translate(-773.914 -739.04)" fill="#ef3744" fill-rule="evenodd"/>
        <path id="Path_397" data-name="Path 397" d="M1121.3,841.629l.011-.006.012-.007.013-.007.013-.007.03-.016.031-.016.033-.017.035-.018.036-.018.037-.018.037-.018.038-.018.01,0,.023-.023.032-.031.031-.03.015-.014.015-.014.015-.013.015-.013.015-.013.014-.012.014-.012.013-.011.013-.01.013-.01h0l.013-.01.011-.009h0l.011-.008.011-.008h0l.012-.008h0l.005,0v-.023h0l0-.035h0l.005-.03h0l0-.011.005,0h0l0,0h0l0,0h0l0,0h0l0,0h0l0,0h0l0,0h-.009l-.009,0h0l-.01,0h0l.146-.049,0-.007.006-.013.005-.017,0-.02v-.024l-.007-.025-.012-.023-.016-.02-.016-.014-.017-.01-.015-.007-.013,0-.011,0-.01,0-.01,0-.008,0-.008,0h-.046l-.008-.01-.02-.025-.023-.029-.014-.019h-.452l-.013,0-.044.015-.043.015-.043.015-.042.015-.041.015-.04.015-.038.015-.036.014-.018.007-.017.007-.017.007-.016.007-.016.007-.015.007-.015.007-.015.007-.015.007-.015.008-.015.008-.013.007-.029.016-.026.015-.027.014-.026.015-.026.014-.027.014-.027.014-.027.014-.027.014-.027.014-.054.028-.054.027-.055.027-.051.025,0,0-.054.028-.055.028-.055.028-.055.028-.055.028-.112.056-.224.113-.113.057-.057.029-.057.029-.057.029-.057.03-.057.03-.037.019-.019.012-.055.034-.055.034-.055.034-.027.018-.027.017-.082.052-.083.052-.082.052-.083.052-.082.052-.083.052h0l-.082.054-.083.054-.083.054-.082.054-.083.054-.083.054-.084.054-.084.054-.03.019-.052.038-.081.059-.083.059-.083.059-.082.059-.041.029-.042.029-.042.029-.041.029-.042.029-.042.029-.042.028-.042.028-.043.028-.042.028-.043.028-.043.028-.043.028-.043.028-.043.028-.043.027-.043.027-.043.027-.043.027-.043.027-.043.027-.043.027-.043.026-.043.026-.044.026-.044.026-.043.026-.044.026-.044.026-.044.025-.044.025-.044.025-.045.025-.044.025-.045.025-.044.025-.045.024-.044.024-.045.024-.045.023-.045.024-.045.024-.045.024-.045.024-.045.024-.045.023-.045.023-.045.022-.01.005-.035.018-.046.022-.046.022-.045.022-.045.022-.046.022-.046.021-.046.021-.046.021-.046.021-.046.021-.046.02-.046.02-.046.02-.046.02-.046.02-.046.019-.046.019-.047.019-.046.019-.046.018-.047.018-.047.018-.047.018-.047.018-.047.017-.047.017-.047.017-.047.017-.047.016-.047.016-.047.016-.047.016-.047.015-.047.015-.047.015-.047.015-.047.014-.047.014-.047.014-.047.013-.047.013-.013.02.02.012.048-.011.048-.012.048-.012.048-.012.048-.012.048-.012.048-.012.048-.012.048-.012.048-.012.048-.013.048-.012.048-.013.048-.013.048-.013.048-.013.048-.013.048-.013.049-.013.048-.014.048-.014.049-.014.048-.014.049-.014.048-.014.049-.014.048-.014.049-.015.049-.015.048-.015.048-.015.049-.015.048-.015.048-.015.049-.015.048-.015.049-.016.048-.016.049-.016.049-.016.049-.016.038-.012.011,0,.049-.016.048-.016.049-.016.048-.017.049-.016.048-.017.049-.016.048-.017.049-.017.048-.017.048-.017.048-.017.049-.017.049-.017.048-.018.048-.017.049-.018.048-.017.049-.018.048-.018.048-.018.049-.018.049-.018.049-.018.049-.018.048-.018.048-.018.049-.018.053-.016.048-.018.048-.019.049-.018.048-.018.048-.019.048-.018.048-.018.048-.019.048-.019.048-.018.048-.019.048-.019.048-.019.048-.019.048-.019.048-.019.048-.019.048-.019.048-.019.1-.038.1-.038.1-.038.1-.038.062-.025.033-.016.091-.045.092-.045.091-.045.091-.045.091-.045.09-.045.09-.046.089-.045h0l.088-.048.087-.048.087-.048.086-.048.086-.048.085-.048.027-.015.026-.015.053-.029.053-.029.054-.029.019-.01.034-.021.052-.032.053-.032.052-.032.053-.032.053-.032.107-.064.216-.128.108-.065.055-.033.054-.033.054-.033.055-.033.054-.034,0,0,.051-.033.054-.035.054-.035.054-.036.027-.018.027-.018.027-.019.027-.018.027-.018.027-.019.027-.019.027-.019.027-.019.026-.019,0,0,.007,0-.008,0,.008-.005-.006,0,.009-.006-.005,0,.009-.006,0,0,.01-.006,0,0,.009-.006.01-.006h0Zm.539-.69.051.145-.012-.005h0l-.016-.011h0l-.016-.016h0l-.014-.02h0l-.01-.024h0l0-.023h0v-.019l0-.017v0l0-.013v0l0-.01Z" transform="translate(-1110.484 -839.009)" fill="#ef3744" fill-rule="evenodd"/>
        <path id="Path_398" data-name="Path 398" d="M873,1166.168l.01,0h0l.02-.009.02-.009h0l.021-.009h0l.02-.009.021-.009.021-.009.021-.009.043-.017.043-.016h.143l.015,0,.021-.006.011-.006.016-.01.014-.012h0l.01-.013.008-.014h0l.007-.015h0l0-.015,0-.015h0v-.016l0-.017h0l0-.015,0-.011-.009-.016-.008-.01-.006-.007-.007-.006-.006,0-.146.009.022-.017h0l.024-.009h0l.016,0h.027l0,0h0l-.005,0h0l-.012-.006h0l-.012-.006-.014-.007-.015-.007-.008,0-.009,0-.009,0-.009,0-.01,0-.01,0-.011,0-.012,0-.012,0h-.045l-.047,0-.047,0h-.256l-.014,0h-.014l-.014,0-.014,0-.043.005-.043.005-.043,0-.043,0-.044,0-.016,0-.026.008-.041.012-.042.011-.042.013-.042.013-.041.012-.042.013-.035.011-.007,0-.041.015-.041.016-.041.015-.041.015-.041.016-.041.016-.041.016-.041.017-.041.016-.033.014-.008,0-.041.018-.04.018-.04.018-.04.018-.04.019-.04.019-.04.019-.039.019-.038.02-.055.028-.054.027-.054.027-.054.027-.055.026-.054.026-.055.026h0l-.053.025-.055.026-.055.025-.055.025-.055.025-.055.025-.055.024-.055.024-.055.023-.056.024-.055.024-.055.023-.056.023-.056.023-.056.022-.035.014-.021.009-.056.024-.056.023-.056.022-.056.022-.056.022-.056.022-.056.022-.043.016-.014.006-.056.024-.056.023-.056.022-.056.022-.056.022-.056.022-.056.022-.018.007-.038.017-.055.025-.056.025-.056.024-.056.025-.056.024-.056.025-.029.012-.027.012-.056.025-.056.025-.056.025-.056.025-.056.025-.057.024-.057.024-.057.024h0l-.056.024-.057.024-.057.024-.058.024-.057.023-.058.023-.058.024-.058.023-.059.023-.059.023-.106.178.183.1.062-.011.062-.011.062-.011.063-.011.062-.011.062-.011.062-.011.062-.011.062-.011.061-.011h0l.062-.012.062-.011.062-.012.062-.012.062-.012.062-.012.062-.012.061-.012.03-.006.032-.007.061-.015.061-.014.061-.014.061-.015.061-.015.061-.015.042-.01.019-.006.06-.019.06-.019.059-.019.06-.02.059-.019.059-.02.059-.019.014-.005.045-.016.059-.022.059-.022.059-.022.059-.022.059-.022.059-.023.058-.024.022-.009.035-.015.057-.024.057-.025.057-.026.057-.025.057-.025.057-.026.057-.026.057-.026.057-.027.057-.026.057-.027.057-.027.057-.027.057-.027.055-.028h0l.056-.029.057-.028.057-.029.056-.029.056-.03.056-.03.055-.029.035-.019.035-.018.035-.018.035-.018.035-.018.036-.017.036-.017.036-.017.036-.017.008,0,.029-.014.037-.017.037-.017.037-.017.038-.017.037-.017.038-.017.037-.016.038-.017.038-.016.006,0,.031-.015.037-.017.038-.017.037-.017.038-.017.038-.016.038-.016.024-.01.012-.009.035-.024.035-.022.035-.022.035-.021.035-.022.009-.005h0l.01-.006h0l.01-.005h0l.01-.006h0l.009-.005.009,0h0l.01-.005.009,0h0Zm.282-.146h0l-.006-.008h0l-.008-.012h0l-.009-.019-.006-.032.006-.044.018-.03.009.145,0,0-.005,0h0Z" transform="translate(-859.014 -1160.203)" fill="#ef3744" fill-rule="evenodd"/>
        <path id="Path_399" data-name="Path 399" d="M1811.689,1706.674l-.01.008,0,0v0l-.007.007-.009.009-.01.009-.013.015-.006.01-.008.014-.006.015h0l0,.015h0v.04l.006.02h0l.008.018h0l.009.013.011.012h0l.012.011.014.009h0l.015.007h0l.016,0h.034l-.013-.227h0l-.018-.01-.013-.006Zm.114.22,0,0h0l.01-.009h0l.015-.019h0l.017-.044h0l-.007-.033.01-.017,0,0,0,0h0v0h0l0-.024-.023,0h0l0,0h-.006l-.019,0-.03-.03-.031-.011h-.029l.019.01.037.017,0,0,.026.01h0l.017.016.008.044v0l-.012.025,0,0-.013.038h0l-.005.021,0,.017-.006.005h0l-.007,0h0l0,0h0l0,0,.01,0,0,0h0l0-.013h0Zm-.02-.2Z" transform="translate(-1808.496 -1694.737)" fill="#ef3744" fill-rule="evenodd"/>
        <path id="Path_400" data-name="Path 400" d="M1345.923,1579.254l0,.006v-.006l0,0,0-.006,0,0v-.007l0,0v-.007l0,0v-.007h0v-.007h0v-.006h0v0h.065l.031.038h0l.038.051h0l.016,0,.015,0,0,0,.017,0,.018,0h.01l.007,0,.018-.006.018,0,.019-.006.019-.006.021-.006.021-.006.021-.005.022-.006.022-.006.047-.012.048-.012.05-.012.051-.011.052-.011.06-.014.045-.012.053-.014.052-.013.053-.013.052-.013.051-.014.04-.011.011,0,.024-.008.024-.007.023-.008.024-.008.024-.008.023-.007.023-.008.022-.008.022-.008.021-.008.021-.008h0l.019-.009.063-.031.063-.031.063-.03.063-.031.063-.029.063-.03.063-.029h0l.06-.029.063-.03.063-.03.064-.03.063-.029.063-.029.063-.029.064-.028.053-.024.011-.006.063-.029.064-.029.064-.028.064-.028.065-.028.065-.028.064-.027.064-.027.065-.027.065-.026.065-.026.065-.026.065-.026.066-.025.065-.025.066-.025.066-.024.046-.017.02-.007.066-.025.066-.024.066-.024.066-.024.067-.024.067-.023.067-.023.067-.023.063-.02h0l.068-.022.067-.021.068-.021.067-.021.067-.02.069-.02.068-.019.068-.019.068-.019.059-.015.01,0,.069-.018.069-.017.069-.016.069-.016.07-.015.069-.015.07-.014.07-.014.069-.014.07-.013.07-.012.006-.007-.008,0-.07.01-.071.01-.071.01-.071.011-.07.011-.071.01-.07.01-.071.011-.07.01-.07.01-.071.011h-.01l-.06.009-.07.011-.071.01-.07.011-.071.011-.071.011-.071.011-.07.011-.07.011-.071.011h0l-.065.011-.071.012-.071.011-.071.012-.071.012-.071.012-.071.013-.071.013-.071.013-.021,0-.049.01-.069.015-.07.015-.069.015-.07.015-.07.016-.07.016-.069.016-.07.016-.07.017-.07.016-.069.017-.07.017-.07.017-.07.017-.069.017-.07.018-.07.018-.011,0-.057.016-.069.02-.069.02-.069.02-.069.021-.069.021-.068.021-.069.021-.065.02h0l-.068.023-.068.024-.068.024-.068.023-.067.024-.068.023-.067.024-.017.006h0l-.014.006-.016.007-.016.007-.018.007-.019.007-.019.008-.02.008-.021.007-.021.008-.021.008-.022.008-.009,0-.036.015-.047.019-.049.019-.049.019-.05.02-.05.02-.044.017-.057.024-.05.02-.05.02-.049.02-.048.02-.047.019-.024.01-.023.009-.022.01-.022.01-.021.009-.022.009-.02.009-.021.009-.02.01-.008,0-.011.007-.017.013-.018.012-.016.012-.017.012,0,0,.013.063.009.048,0,0-.01.016-.005.007,0,.007-.005.007,0,.007,0,.006,0,.007,0,.006,0,.006,0,.006h-.036l-.01,0-.01,0-.01,0-.01.006-.009,0-.037.071.08.084h0l.148.047.007-.088h0l0,0,0,.006ZM1345.9,1579.228Z" transform="translate(-1342.607 -1567.057)" fill="#ef3744" fill-rule="evenodd"/>
        <path id="Path_401" data-name="Path 401" d="M981.21,1471.15l-.025,0-.025,0-.025,0-.025,0-.025,0-.025,0-.05.006h0l-.048.012-.048.013-.047.013-.047.013-.018.005-.027.016-.043.025-.033.02-.049.034-.039.027-.036.023,0,0-.037.026-.037.024-.035.023-.036.021-.166.213.225.148.042.009.044.009.045.01.046.011h0l.042.009.047.01.058.014.038.006.048.009.029.005h.018l.046,0,.046,0,.046,0,.046,0h0l.045-.01.022-.005.022,0,.022-.005.022,0,.022,0,.021,0,.016,0,.005,0,.021-.008.021-.008.021-.008.021-.007.02-.008.02-.007.02-.007.02-.007.019-.006.02-.006.019-.006.016,0,0,0,.019-.007.02-.007h0l.02-.006.02-.006h0l.019-.006.019-.006h0l.019-.005.019,0h0l.019,0,.019,0h0l.018,0h0l.019-.02h0l.011-.009h0l.011-.009h0l.011-.009h0l.01-.008h0l.006-.013.068-.052,0,0-.051.075-.013.008h0l0,0h0l.011-.006h0l0,0,.005,0,.013-.007.014-.009.008-.005.008-.005.008-.005.008-.006.008-.005.009-.006.008-.006,0,0,0,0,0,0,0,0,.005-.006.005-.006.006-.007.006-.009.006-.011.005-.013,0-.015v-.018l0-.019-.006-.018-.008-.016-.01-.014-.011-.01-.01-.008-.01-.005-.009,0-.009,0-.008,0-.008,0h-.016l0-.015-.006-.034-.005-.038h0l-.009-.011-.01-.012-.01-.012-.011-.012-.02-.024h0l-.024-.007-.023-.007-.023-.007-.024-.006-.024-.006-.023-.006-.024-.006-.025-.006-.025-.006-.025-.005-.025-.006h0l-.021,0-.025,0-.025,0-.026,0-.025,0-.026,0-.026,0-.026,0-.026,0-.026,0-.026,0-.026,0h-.025Zm.643.434h0Zm0,0h0Zm0,0Zm0,0h0Zm0,0h0Zm0,0Z" transform="translate(-968.839 -1461.989)" fill="#ef3744" fill-rule="evenodd"/>
      </g>
    </g>
  </g>
</svg>
